<?xml version="1.0" standalone="no"?>
<!DOCTYPE svg PUBLIC "-//W3C//DTD SVG 20010904//EN"
 "http://www.w3.org/TR/2001/REC-SVG-20010904/DTD/svg10.dtd">
<svg version="1.0" xmlns="http://www.w3.org/2000/svg"
 width="512.000000pt" height="512.000000pt" viewBox="0 0 512.000000 512.000000"
 preserveAspectRatio="xMidYMid meet">

<g transform="translate(0.000000,512.000000) scale(0.100000,-0.100000)"
fill="#000000" stroke="none">
<path d="M2366 4679 c-141 -21 -316 -83 -443 -156 -517 -302 -756 -900 -589
-1475 156 -536 657 -909 1221 -911 338 -1 640 118 882 347 460 435 534 1140
173 1660 -200 288 -522 488 -864 535 -89 13 -294 12 -380 0z"/>
<path d="M2300 1704 c-1100 -34 -1610 -295 -1844 -942 -42 -117 -33 -189 33
-265 65 -73 -106 -68 2087 -65 l1970 3 42 28 c60 39 93 94 99 164 4 48 0 73
-27 145 -213 584 -670 853 -1560 917 -157 11 -631 20 -800 15z"/>
</g>
</svg>
